<?xml version="1.0" ?><svg enable-background="new 0 0 1080 1080" id="katman_1" version="1.1" viewBox="0 0 1080 1080" xml:space="preserve" xmlns="http://www.w3.org/2000/svg" xmlns:xlink="http://www.w3.org/1999/xlink"><g><path d="M189.9,892.1c-23.8-23.3-44.5-49-62.8-76.7c-35.8-54-60-112.9-72.8-176.4c-8-39.8-11.1-80.1-9-120.6   c5.7-109.8,42.9-207.8,113-292.6c70-84.7,158.7-140.2,265.5-166.8c46.1-11.5,93.1-16,140.4-13.6C668,50.4,761.4,84.5,844.1,147.6   c16.4,12.5,32,26.2,46.7,40.7c1.1,1.1,2.8,1.9,3.1,3.7c-0.4,2.1-2.1,3.4-3.5,4.8c-45.4,45.4-90.3,91.2-136.2,136   C698.2,387.4,643.6,443.3,588,498.2c-2.1,2.1-3.9,4.6-7.2,5.1c-57.8,0.3-115.6,0-173.4,0.1c-3.8,0-7.7-0.2-11.5,0.2   c-0.5,0.3-1,0.6-1.5,1c-1.3,1.6-1,3.5-1,5.3c0,25.1,0,50.2,0,75.3c0,5.9,0.5,6.4,6.7,6.4c26.8,0,53.5,0,80.3,0c2.5,0,5-0.1,7.5,0.2   c2,0.4,3,1.4,1.7,3.5c-1,1.6-2.4,2.8-3.7,4.1c-22.8,22.8-45.5,45.7-68.5,68.3c-5.4,5.3-10.8,10.7-17,15.3c-2.7,0.8-5.6,0.2-8.3,0.9   c-32-1-60.7-11.2-85.6-31.5c-27.7-22.8-44.5-52-49.4-87.5c-5.7-41.3,5.3-78.4,31.8-110.5c15.2-18.4,34.2-31.9,56.7-40.5   c16.9-6.5,34.5-9.4,52.3-8.9c26.9,0.8,51.6,8.9,73.2,25.7c11.3,8.8,8.5,7.9,17-0.8c15.5-15.9,31.3-31.4,46.9-47.1   c3.8-3.8,7-8,11.2-11.4c2.4-2,2-3.8-0.2-5.8c-2.9-2.5-6.4-4.3-8.5-7.6c-0.4-1.1,0.4-2.1,0.4-3.2c0.3-0.6-0.9-0.4-0.3-0.2   c0.1,0,0,0.5-0.1,0.9c-0.2,0.7-0.6,1.1-1.3,1.3c-2.4,0.1-4-1.5-5.7-2.7c-29.2-20.3-61.3-33.1-96.5-38.8   c-16.9-2.7-33.9-3.4-50.8-2.5c-26.9,1.5-53,7.5-77.9,18.2c-17.7,7.6-34.4,17.1-49.6,28.7c-15.8,12-29.9,25.9-42.2,41.6   c-26.2,33.7-42.2,71.6-47,114c-4.2,38,0.6,75,15,110.7c12.9,31.9,32.2,59.4,57.4,82.6c23.3,21.4,49.9,37.7,80,48   c1.6,0.5,3.2,0.9,4.6,1.9c0.4,0.3,0.7,0.7,0.7,1.2c-1,2.2-3.1,3.4-4.7,5c-5.9,6.1-12,12-18,18c-35.3,36-72,70.5-107.4,106.3   C193,890.2,191.9,891.7,189.9,892.1z" fill="#DD5246"/><path d="M1025.8,647c-1.2,9.2-3.8,18-6.3,26.8c-9.7,35-23.2,68.5-40.3,100.6c-12.4,23.2-26.6,45.3-42.4,66.2   c-12,15.9-25.1,30.7-38.9,45.1c-21.5,22.5-45.1,42.2-70.3,60.4c-25.4,18.3-52.4,33.6-80.7,46.7c-29.1,13.5-59.3,23.7-90.5,31.1   c-17.9,4.3-35.9,7.5-54.1,9.8c-8.9,1.1-18,1.7-27,2.4c-20.3,1.6-40.5,0.7-60.8,0.6c-11.9,0-23.9-1.9-35.8-3c-0.6-0.1-1.1-0.7-1.7-1   c-4.2-4.2-6.4-9.7-9.3-14.7c-30.9-55.4-62-110.6-93-165.9c-16.3-29-32.6-58-48.7-87.2c-0.9-1.6-2.7-3.2-0.9-5.4   c7.5,0.1,14.2,3.2,21.4,4.7c42.2,8.9,83.7,7,124.7-6.6c39.4-13,72.8-35.2,100.3-66c30.2-33.8,48.7-73.3,55.3-118.3   c0.7-4.6,0.1-9.4,2.1-13.8c1.1-2.7,3.1-4.6,5.6-6.1c6.9-4.1,14.3-7.2,21.2-11.2c1.6-0.9,3.5-1.6,4.4,1.1c0.7,2.6,0.4,5.3,0.6,8   c0.2,2.4,1.4,3.6,3.8,3.7c1.8,0.1,3.7,0.1,5.5,0.1c25.6,0,51.3,0,76.9,0c1.5,0,3,0,4.5,0c7,0.2,8.1,1.2,8.2,8.2   c0.1,23.1,0,46.3,0,69.4c0,9.3,0,9.3,9.2,9.3c15.3,0,30.6,0,46,0c6.1,0,6.6-0.5,6.6-6.5c0.1-22.5,0-45,0-67.4c0-1.8,0-3.7,0.1-5.5   c0.3-5.8,1.8-7.2,7.7-7.5c1.8-0.1,3.7,0,5.5,0c26,0,52,0,77.9,0c7.6,0,7.7-0.2,7.8-7.9c0.2-14.5-0.4-29,0.3-43.4   c1.3-4,3-1.9,4.4-0.2c4,5.1,7.7,10.5,11.4,15.8c28.6,40.4,57.3,80.9,86.1,121.1C1024,642.7,1025,644.8,1025.8,647z" fill="#752B24"/><path d="M1025.8,647c-9.1-12.6-18.3-25.3-27.3-38c-25.5-35.7-50.9-71.4-76.3-107c-5.9,1.1-11.9,0.5-17.9,0.5   c-9.1-0.1-18.2,0.7-27.3-0.5c-1.7-0.5-2.7-1.8-3.6-3.3c-16.1-26.1-31.9-52.3-48-78.5c0,24.8,0.1,49.6-0.1,74.3   c0,2.2,1.6,5.5-2.4,6.3c-2-2.5-1.5-5.4-1.5-8.2c0-23.2,0-46.3,0-69.5c0-7.5-0.1-7.6-7.5-7.6c-15.8,0-31.7,0-47.5,0   c-6.3,0-6.8,0.5-6.8,6.9c0,22.7,0,45.3,0,68c0,1.7,0,3.3,0,5c-0.3,5.8-1.4,7-7.3,7.1c-13.5,0.2-27,0-40.5,0.1   c-14.8,0-29.7,0-44.5,0c-6.4,0-6.7,0.4-6.7,6.9c-0.1,8.7,0,17.3,0,26c0,2.3,0.3,4.7-1.7,6.6c-8.1,4.4-16.1,8.9-24.4,13   c-2.3,1.2-3.4,2.9-4.4,4.9c-1.5-1.2-1.4-2.9-1.2-4.6c1.6-15.3,0-30.5-2.2-45.6c-0.8-5.9-1.2-6.2-7.4-6.2c-10-0.1-19.9,0-29.9-0.1   c-2.3,0-4.7,0.4-6.5-1.7c1.2-1.4,2.4-2.8,3.7-4c52.6-52.6,104.7-105.5,157.8-157.5c49.3-48.3,97.6-97.5,146.7-145.9   c0.8-0.8,1.7-1.5,2.6-2.3c9.1,7.8,16.8,17,24.5,26.1c46.8,55,80.4,117.3,100.1,186.8c8.5,29.9,14,60.3,16.7,91.3   c2.4,27.4,2.5,54.9,0.6,82.3C1034.2,601.6,1030.7,624.4,1025.8,647z" fill="#B04239"/><path d="M325,760.1c7.8,14.2,15.6,28.5,23.5,42.7c10,18,20.2,35.9,30.3,53.8c15,26.6,30,53.3,44.9,79.9   c13.2,23.6,26.4,47.3,39.5,70.9c4.7,8.4,10,16.5,13.8,25.3c-15.1-1.3-29.9-4.2-44.6-7.5c-72.5-16.1-137.9-47.1-196.6-92.6   c-16.2-12.6-31.7-25.9-46-40.7c5.4-5.6,10.8-11.3,16.3-16.8c37.8-37.5,75.6-75,113.4-112.4c1.3-1.3,2.4-2.8,4.4-3   C324.5,759.6,324.8,759.7,325,760.1z" fill="#B04239"/><path d="M537.9,357.2c3.2,2.6,6.3,5.5,9.6,7.9c3,2.1,3.3,3.4,0.4,6.3c-18.1,17.9-36,36.1-53.9,54.2   c-3.6,3.7-7.2,7.3-10.7,11.1c-2.2,2.4-3.8,2.5-6.4,0.2c-11.1-9.7-23.4-17.6-37.4-22.6c-15.6-5.5-31.5-8.3-48.3-7.9   c-13.2,0.3-26.3,1.9-38.5,6c-21.2,7-40,18.5-55.8,34.8c-21.3,21.9-34.5,47.9-38.6,77.8c-5.8,42.5,5.3,80.5,34.5,112.4   c25.6,28,57.6,42.8,95.5,44.8c1.2,0.1,2.3,0.4,3.4,0.6c2.4-0.3,5.9-1.5,6.9,0.4c1.3,2.4-2,4.1-3.7,5.8c-22,22.1-44,44.1-66.1,66.1   c-1.5,1.5-2.8,3.4-5.1,3.9c-16.2-4.3-31.2-11.6-45.5-20c-39.8-23.4-70.2-55.8-90.9-97c-12.9-25.7-20.3-52.9-22.7-81.6   c-3.4-40.5,3.4-79.2,20.4-116c9.8-21.1,22.8-40.2,38.5-57.4c27.3-29.7,60.1-51.1,98.4-64.1c31.6-10.7,64-13.9,97.3-11.2   c19.9,1.7,39.1,6.1,57.7,12.4c14.9,5.1,29.4,12.1,42.7,20.9c5.7,3.8,11.4,7.5,17.1,11.2C537.5,356.3,537.9,356.5,537.9,357.2z" fill="#FEFEFE"/><path d="M323.9,759.1c1.3-1.5,2.6-3,4-4.4c22.3-22.3,44.7-44.7,67-67c1.2-1.2,2.9-2.2,3.4-4.3   c-2.2-0.1-4.3-0.3-6.4-0.4c3-1.4,6.2,0,9.2-0.8c4.6-2.5,9.8-1.4,14.6-2.2c42.1-6.7,72.5-29.1,91.4-67.1c2.2-4.4,4.1-9.1,5.6-13.9   c1.3-4.1,1.1-4.5-3.4-4.5c-4.7-0.1-9.3,0-14,0c-1.8,0-3.7,0.3-5.2-1.1c-30.6-0.1-61.3-0.3-91.9,0c-5.2,0-6.3-1.5-6.2-6.4   c0.3-26.5,0.1-53,0.2-79.4c0-1.7-1-3.7,1-5c1.8,2.3,1.4,5.1,1.4,7.7c0,24.5,0,49,0,73.4c0,6.9,0.2,7.1,6.9,7.1   c27.6,0,55.3,0,82.9,0.1c4.2,0,7.6-1,10.7-4.1c26.3-26.4,52.7-52.8,79.1-79.2c0.6-0.6,1.2-1.1,1.7-2.3c-1.6-0.9-3.4-0.5-5.1-0.5   c-56.3,0-112.6,0-168.8-0.1c-2.7,0-6.1,1.5-7.8-2.3c2.5-0.1,5-0.2,7.5-0.2c60,0,120,0,180,0c0.5,0,1-0.1,1.5-0.1   c13.2,0.1,26.3,0.2,39.5,0.1c3.5,0,5,0.9,5.5,4.5c1.9,14.1,3.6,28.3,2.9,42.6c-0.2,3.6-0.4,7.3-0.7,10.9c-1.4,8.7-2.5,17.4-4.2,26   c-12.1,57.9-42.2,104.3-89.4,139.6c-33.4,24.9-71.1,39.4-112.4,44.2c-31.6,3.6-62.8,1-93.3-7.9c-1.9-0.6-3.8-1-5.7-1.6   c-0.3-0.1-0.6-0.2-0.9-0.3C324,759.6,323.9,759.3,323.9,759.1z" fill="#DCDCDC"/><path d="M394,502.1c1.8,1.5,3.8,0.8,5.8,0.8c58,0,116,0,174,0c1.8,0,3.5,0,5.4,0c-0.3,2.3-1.9,3.1-3,4.2   c-27.1,27.1-54.2,54.2-81.3,81.4c-2.2,2.2-4.4,3.5-7.8,3.5c-29.7-0.1-59.3-0.2-89,0c-4.2,0-5.3-1.2-5.3-5.3   c0.2-28.2,0.1-56.3,0.1-84.5C393.4,502.2,393.7,502.2,394,502.1z" fill="#FEFEFE"/><path d="M490,593.2c7.7-0.1,15.3-0.1,23-0.3c2.6-0.1,3,0.6,2.2,3.1c-4.7,13.6-10.7,26.5-19.3,38.1   c-10.7,14.3-23.9,25.9-39.8,34.1c-17.3,8.9-35.5,14.1-55.1,13.8c3.9-5,9-8.8,13.5-13.2c25-24.7,49.8-49.6,74.6-74.5   C489.5,594,489.7,593.6,490,593.2z" fill="#B04239"/><path d="M162.4,559.2c-1.8-2.5-1.2-5.5-3.2-7.8c-0.7-0.9,0.3-2.4,1.6-2.5c1.5-0.1,1.2,1.3,1.1,2.2   C161.8,553.8,162.3,556.5,162.4,559.2z" fill="#DD5549"/><path d="M165.8,496.8c-0.5-0.9-0.6-1-0.6-1.2c0-2.1-0.8-4.3,0.7-6.1c0.2-0.2,1.3-0.1,1.3,0   C167.5,491.8,167.3,494.1,165.8,496.8z" fill="#DE594E"/><path d="M537.9,357.2c-0.3-0.2-0.7-0.5-1-0.7c0.4-1.6-1.4-3.5,0.9-4.8C540,353.4,538.7,355.3,537.9,357.2z" fill="#DE594E"/><path d="M503.1,330.4c-1.5,2.8-2.7,3-4.9,1.5C499.8,331.4,500.9,331.1,503.1,330.4z" fill="#DE594E"/><path d="M161,561.1c0.6,0.1,1.4,0,1.4,0.9c0,0.9-0.8,0.9-1.4,0.9c-0.6,0-1.4,0-1.4-0.9   C159.5,561.1,160.3,561.1,161,561.1z" fill="#DE5A4E"/><path d="M487,326.6c2.5-0.9,3.6-0.6,4.5,0.8C489.8,328.5,489,327.2,487,326.6z" fill="#DE584C"/><path d="M367,310.8c-0.4-0.6-0.8-0.9-0.8-1.2c-0.1-0.7,0.3-1.3,1-1.1c0.3,0.1,0.6,0.7,0.5,1.1   C367.8,310,367.4,310.3,367,310.8z" fill="#DE584C"/><path d="M511.2,410.6c0.9,0,1.4,0.5,1.4,1.1c0,0.3-0.6,1-0.7,0.9c-0.5-0.3-1-0.6-1.4-1.1   C510.5,411.4,511,410.9,511.2,410.6z" fill="#DE594D"/><path d="M176,462.8c-0.2,0.3-0.5,1-1,1.3c-0.6,0.4-1-0.2-0.9-0.7c0.1-0.6,0.4-1.3,0.9-1.6   C175.6,461.4,175.8,462,176,462.8z" fill="#DE584C"/><path d="M161.4,520.4c-0.2,0.1-0.6,0.4-1,0.4c-0.7,0-1.2-0.5-0.9-1.2c0.1-0.3,0.8-0.4,1.2-0.4   C161.2,519.3,161.7,519.5,161.4,520.4z" fill="#DE564A"/><path d="M160.7,534c-0.5-0.3-1.1-0.5-1.2-0.8c-0.2-0.8,0.4-1.1,1.1-1c0.3,0,0.8,0.5,0.9,0.8   C161.5,533.3,161,533.6,160.7,534z" fill="#DE5B50"/><path d="M418.6,410.4c0.4,0.5,0.9,0.8,0.9,1.2c0,0.3-0.4,0.6-0.6,1c-0.3-0.3-0.7-0.5-0.8-0.9   C418.1,411.4,418.4,411,418.6,410.4z" fill="#DE594F"/><path d="M508.5,416.3c-0.5,0.3-0.9,0.6-1.2,0.6c-0.4-0.1-0.6-0.5-0.9-0.8c0.3-0.3,0.6-0.7,0.9-0.7   C507.7,415.4,508,415.8,508.5,416.3z" fill="#DE584D"/><path d="M491.6,433.3c-0.3,0.2-0.6,0.5-1,0.5c-0.5,0.1-1-0.2-0.7-0.7c0.1-0.3,0.6-0.7,1-0.8   C491.4,432.2,491.6,432.6,491.6,433.3z" fill="#DE5D52"/><path d="M188.5,435.3c-0.8,0.7-1.1,1-1.4,1.3c-0.3-0.3-0.8-0.7-0.7-0.9c0.1-0.4,0.5-0.8,0.9-0.9   C187.5,434.7,188,435,188.5,435.3z" fill="#DE5B50"/><path d="M658.9,542c0.1-12.2,0.3-24.3,0.1-36.5c-0.1-3.8,1.1-4.7,4.8-4.7c29.6,0.2,59.3,0,88.9,0.2   c4.6,0,5.4-1.4,5.3-5.6c-0.2-25.5,0-51-0.2-76.4c0-3.8,0.8-5.1,4.9-5.1c18.5,0.2,37,0.2,55.5,0c3.9,0,5.1,1,5.1,5   c-0.2,25.6-0.1,51.3-0.1,76.9c0,1.6-0.7,3.3,0.7,4.7c2-1.5,4.4-1.3,6.7-1.3c12.7,0,25.3,0,38,0c2.5,0,5,0.2,7.2,1.5   c13.7,0.1,27.4,0.1,41.1,0.2c1.7,0,3.7-0.8,5.1,1c-0.1,16.8-0.3,33.6-0.1,50.5c0,4-1.1,5-5,4.9c-29.5-0.2-59,0-88.4-0.2   c-4,0-5.4,0.9-5.4,5.2c0.2,25.6,0,51.3,0.2,76.9c0,3.8-1,4.7-4.7,4.7c-18.8-0.2-37.6-0.2-56.5,0c-3.6,0-4.4-1-4.4-4.4   c0.1-25.8,0-51.6,0.2-77.4c0-4-1.1-5-5-4.9c-29.6,0.2-59.3,0-88.9,0.2c-3.8,0-5.5-0.8-5.1-4.9C659.4,549.1,659,545.5,658.9,542z" fill="#DCDCDC"/><path d="M876,500.8c-17.3,0-34.7-0.1-52-0.1c0-27.9,0-55.8,0-83.6c0.4-0.1,0.7-0.2,1.1-0.4   C842,444.8,859,472.8,876,500.8z" fill="#762B25"/></g></svg>