<?xml version="1.0" encoding="iso-8859-1"?>
<!-- Generator: Adobe Illustrator 19.0.0, SVG Export Plug-In . SVG Version: 6.00 Build 0)  -->
<svg version="1.1" id="Layer_1" xmlns="http://www.w3.org/2000/svg" xmlns:xlink="http://www.w3.org/1999/xlink" x="0px" y="0px"
	 viewBox="0 0 512 512" style="enable-background:new 0 0 512 512;" xml:space="preserve">
<g>
	<polygon style="fill:#3A88D6;" points="512,7.355 428.701,65.072 411.858,65.4 405.871,49.323 402.772,16.929 	"/>
	<polygon style="fill:#3A88D6;" points="313.813,237.79 249.82,504.645 188.836,402.241 0,416.782 285.894,220.195 286.252,220.441 
		313.343,237.477 	"/>
</g>
<g>
	<path style="fill:#666666;" d="M221.948,371.565l-27.501-18.97c-3.815-2.631-9.039-1.671-11.669,2.142
		c-2.631,3.814-1.671,9.038,2.143,11.669l27.501,18.97c1.454,1.003,3.113,1.484,4.755,1.484c2.664,0,5.286-1.267,6.914-3.626
		C226.72,379.421,225.761,374.196,221.948,371.565z"/>
	<path style="fill:#666666;" d="M209.413,330.972l27.502,18.969c1.454,1.003,3.113,1.484,4.755,1.484
		c2.666,0,5.286-1.267,6.914-3.626c2.631-3.814,1.671-9.039-2.143-11.669l-27.502-18.969c-3.817-2.631-9.04-1.671-11.669,2.143
		C204.639,323.117,205.599,328.341,209.413,330.972z"/>
</g>
<g>
	<path style="fill:#F7B239;" d="M244.518,418.874c-2.762-6.687-12.531-6.794-15.428-0.152c-1.421,3.257-0.6,7.185,2.042,9.572
		c2.826,2.553,7.127,2.859,10.297,0.759C244.701,426.886,246.046,422.497,244.518,418.874
		C244.305,418.359,244.73,419.377,244.518,418.874z"/>
	<path style="fill:#F7B239;" d="M252.381,393.717c-1.449-3.509-5.216-5.655-8.976-5.092c-3.383,0.507-6.157,3.082-6.932,6.407
		c-1.626,6.979,6.083,12.71,12.302,9.186C252.393,402.167,254.004,397.565,252.381,393.717
		C252.169,393.203,252.594,394.221,252.381,393.717z"/>
	<polygon style="fill:#F7B239;" points="428.701,65.072 313.343,237.477 274.171,296.022 246.677,277.051 286.252,220.441 
		405.871,49.323 	"/>
</g>
<g>
</g>
<g>
</g>
<g>
</g>
<g>
</g>
<g>
</g>
<g>
</g>
<g>
</g>
<g>
</g>
<g>
</g>
<g>
</g>
<g>
</g>
<g>
</g>
<g>
</g>
<g>
</g>
<g>
</g>
</svg>
