<?xml version="1.0" ?><svg enable-background="new 0 0 1080 1080" id="katman_1" version="1.1" viewBox="0 0 1080 1080" xml:space="preserve" xmlns="http://www.w3.org/2000/svg" xmlns:xlink="http://www.w3.org/1999/xlink"><g><path d="M189.9,892c-24.5-24-45.8-50.6-64.4-79.2c-35.4-54.3-59.3-113.2-71.6-176.9c-7.5-38.8-10.5-77.9-8.5-117.2   c4.9-99.8,36.4-190.7,95.9-271.1c70.1-94.7,162.6-157,276.5-187.3c26-6.9,52.5-11.1,79.4-13.5c27.5-2.5,54.9-2.8,82.3-0.6   c67.7,5.2,131.7,23.4,191.9,54.9c44.9,23.5,85.2,53.2,121,88.9c0.6,0.6,1,1.3,1.6,1.9c-0.4,2.2-2.1,3.3-3.5,4.7   c-40.4,40.4-80.8,80.8-121.2,121.2c-1.4,1.4-2.6,3.1-4.7,3.6c-0.5,0-1-0.1-1.5-0.4c-10.6-8.6-20.2-18.4-31-26.7   c-43.3-33.4-92-53.9-146-62.1c-20.3-3.1-40.8-3.5-61.3-2.8c-8.4,0.3-17,0.9-25.3,2.5c-4.8,0.9-9,0.3-13.3-2.3   c-23.2-13.8-48.3-21.8-75.1-24c-39.1-3.2-76.3,3.8-110.8,23.4c-14.8,8.4-28.2,18.5-40.1,30.4c-19.9,20-35.1,43.2-44.3,69.9   c-15.5,45.1-14.6,90,2.8,134.4c3.2,8.1,6.9,15.9,11.5,23.2c2.1,3.3,2.6,6.7,2.1,10.5c-2.4,16.5-3.2,33.1-3,49.8   c0.4,28.7,4.8,56.7,13.1,84.1c12,39.5,31.2,75.3,57.4,107.3c4.1,5,8.2,10,12.9,14.6c2.6,2.5,5.1,5.3,6.7,8.6   c0.6,2.8-1.5,4.2-3.1,5.9c-23.5,23.6-46.7,47.5-70.8,70.6c-17.2,16.5-33.8,33.6-50.9,50.1C193.2,889.9,192.1,891.7,189.9,892z" fill="#0193F3"/><path d="M1036.1,513.1c1.5,1.5,0.9,3.5,0.9,5.2c0,16.2,0.6,32.3-0.1,48.5c-0.7,15.2-2.4,30.3-4.5,45.4   c-2.9,20.2-7,40.1-12.3,59.8c-10.2,37.8-25,73.8-43.8,108.1c-15.1,27.6-32.8,53.5-52.8,77.7c-19.7,23.9-41.6,45.7-65.5,65.5   c-33.3,27.6-69.5,50.4-108.6,68.6c-35.7,16.6-72.9,28.5-111.5,36.2c-18.2,3.6-36.5,6.2-54.9,7.8c-23.6,2.1-47.3,1.9-70.8,0.9   c-22.9-1-45.8-3.8-68.3-8.8c-0.6-0.1-1.1-0.5-1.7-0.8c-5.7-7.5-8.6-16.5-12.5-24.9c-9.5-20.2-18.7-40.4-28-60.7   c-13-28.3-26.1-56.5-39.1-84.7c-8.6-18.7-17.2-37.5-26-56.2c-4.6-10-9.1-20-13.8-29.9c-0.8-1.6-2-3.3-0.4-5.1   c2.9-0.3,4.6,1.7,6.4,3.4c49.6,46.3,108.1,73.5,175.4,81.6c26.9,3.2,53.8,3,80.7-0.8c4-0.6,7.5,0.5,10.9,2.4   c21.8,12.6,45.2,20.2,70.1,23.5c33,4.4,64.8,0,95.4-12.7c43.1-17.9,75.2-48.1,96.4-89.5c11.2-21.8,17.3-45.2,19.3-69.9   c2.8-35.3-3.9-68.8-20.2-99.9c-5.3-10-6.5-19.3-5.4-30.3c5.4-55.4-2.2-108.9-25.3-159.9c-14.2-31.4-32.8-59.8-56.5-84.8   c-1.1-1.2-2.4-2.3-2.7-4.1c2.1-3,3.9-0.4,5.3,0.6c9.3,6.2,18.3,12.8,27.4,19.3c36.7,26,73.4,51.9,110,77.9   c40.7,28.9,81.5,57.7,122.3,86.5C1033.3,510.2,1034.7,511.6,1036.1,513.1z" fill="#024D7D"/><path d="M1036.1,513.1c-9.3-5.1-17.5-11.9-26.2-17.9c-20.5-14.2-40.6-28.8-60.9-43.2   c-36.1-25.6-72.3-51.3-108.4-76.9c-23.3-16.5-46.6-32.9-70-49.3c-1.1-0.8-2-1.8-3.5-1.8c-1.5-0.3-2.4-1.2-2.3-2.8   c1-1.1,1.8-2.4,2.9-3.4c41.1-41.1,82.2-82.2,123.4-123.3c0.9-0.9,2-1.7,3-2.6c22.5,22.2,42.1,46.7,59.7,72.9   c33.7,50.3,57.3,105,70.9,164C1030.9,456.5,1035.4,484.5,1036.1,513.1z" fill="#0472B9"/><path d="M321.9,765.9c4.5,10,8.9,20,13.5,29.9c19.7,42.9,39.5,85.7,59.3,128.5c11.2,24.1,22.4,48.2,33.6,72.3   c4.7,10.1,9.1,20.3,13.6,30.4c-20.8-3.6-41-9.4-60.9-16.2c-71.1-24.2-133.5-62.7-187.4-115c-1.3-1.3-2.5-2.6-3.7-4   c17.2-17.6,34.2-35.3,52.3-51.9c2.6-2.4,5-4.9,7.4-7.4c21.9-21.9,43.8-43.7,65.6-65.6c1.4-1.4,2.6-3,3.9-4.5c0.5-0.1,0.9,0,1.3,0.2   C321.4,763.7,322,764.6,321.9,765.9z" fill="#0472B9"/><path d="M320.1,762.9c-0.3-0.1-0.6-0.2-1-0.2c-16.4-17.5-31.7-35.9-44.3-56.4c-23-37.4-37.9-77.8-43.9-121.4   c-4-29.1-4.2-58.1,0.1-87.1c0.6-3.8-0.1-7-2.1-10.3c-16.8-29.3-24.6-60.7-25.2-94.7c-1.4-79.3,53.3-158.9,137.4-181.9   c50.9-14,99.9-8.5,145.9,18.1c6.6,3.8,12.6,1.6,18.8,0.9c81.5-8.5,155.4,11.3,221.6,59.5c13.1,9.5,25.3,20,36.5,31.8   c1.5,2.4-0.6,3.7-1.9,4.9c-25.4,23.4-49,48.7-73.7,72.8c-1.9,1.8-3.4,4.9-7,3.3c-3.3-4-5.9-8.5-9.1-12.5   c-13.1-16.2-30-27.2-49-35.3c-20.6-8.8-42.2-12.8-64.5-14.2c-28.7-1.9-56.9,0.1-84.7,7.1c-20.4,5.2-39.5,13.2-55.9,26.7   c-23.4,19.2-35.8,43.7-35.8,74.3c0,22.4,5.3,42.9,20.4,60.1c13.8,15.7,30.7,26.8,50.1,34.5c19.3,7.6,39.1,13.4,59.1,18.4   c2.3,0.6,4.6,0.9,6.6,2.1c2.4,3-0.4,4.6-2,6.2c-6.8,7-13.8,13.9-20.8,20.9c-12,12-24,24-36.1,36c-1.7,1.7-3.2,4.1-6.3,2.9   c-1.7-1.3-2.2-3.2-3.1-5.1c-3-6.9-6.4-13.6-11.7-19.1c-16-16.6-42.7-15.6-57.4,2.1c-7.9,9.4-8.1,20.6-6.4,31.8   c2.1,13.5,7.5,25.8,15.1,37.2c2.2,3.3,4.8,6.4,6.5,10c0.3,2.5-1.6,3.9-3.1,5.4c-22.8,22.8-45.6,45.6-68.4,68.4   C323.7,761.4,322.6,763.4,320.1,762.9z" fill="#FEFEFE"/><path d="M682.3,401.9c2.3-0.2,3.3-2.1,4.7-3.5c22.8-22.7,45.5-45.4,68.2-68.2c3-3,7.7-4.3,8.8-9.1   c0.3,0,0.6,0.1,0.8,0.1c0.8,0.9,1.5,1.9,2.3,2.8c43.5,45.8,71.2,99.7,82.5,161.8c6,33.1,6.6,66.5,1.5,99.9c-0.4,2.9,0.1,5.4,1.7,8   c17.8,30.4,26.4,63.3,26.1,98.5c-0.8,88.3-65.5,166-152.3,182.9c-47.2,9.2-91.6,1.6-133.1-22.5c-5.3-3.1-10.1-0.9-15-0.4   c-82.5,8.9-157.3-10.7-224.4-59.7c-10-7.3-19.3-15.3-28.3-23.7c-1.2-1.1-2-2.7-3.9-2.9c-0.6-1-1.2-2-1.8-3c3-2.9,6.1-5.7,9-8.6   c21.1-21,42.1-42.1,63.2-63.2c1.3-1.3,2.4-2.7,3.6-4.1c0.4-0.4,0.9-0.5,1.4-0.2c9.1,10.4,19,20,30.7,27.6   c16.5,10.8,34.6,17.8,53.7,22.2c23.7,5.4,47.8,6.8,72,5.9c34.9-1.4,68.4-8.4,98.7-26.7c31.1-18.8,50.3-46,54.7-82.2   c2.3-18.9,1.2-37.9-6.3-56c-6-14.5-15.3-26.6-27.6-36.1c-18.6-14.4-39.8-23.4-62.2-30.1c-9.6-2.9-19.2-5.6-28.8-8.4   c-0.7-0.3-1.3-0.8-1.5-1.6c14.3-11.7,26.7-25.3,39.9-38.2c1.1-1,2-2.2,3.6-2.6c0.5,0,1,0.1,1.5,0.3c10.5,10.3,23.3,12.4,36.9,8.9   c18.6-4.8,29.9-24,26.6-43.4c-1.4-8.1-4.4-15.6-7.6-23.1C681.6,402.6,681.8,402.2,682.3,401.9z" fill="#DCDCDC"/><path d="M624.9,460.7c-0.2,0-0.5-0.1-0.7-0.1c-2.9-1.1-4.3-3.6-5.9-5.9c-4.3-6-7.5-12.6-11.4-18.8   c-6.7-10.9-14.4-20.8-25.3-27.9c-9.7-6.3-20.6-8.6-31.8-9.3c-17.3-1.1-34.6-1.3-51.4,4.7c-10,3.6-18.9,8.8-26.3,16.7   c-12.8,13.7-11.5,33.6,3.1,45.4c11.8,9.5,25.6,14.8,40,18.6c19.8,5.2,39.8,9.7,59.7,14.5c2.1,0.5,4.4,0.6,5.8,2.5   c0.5,0.3,1,0.6,1.4,1c0.2,1.7-1,2.8-2,3.8c-19.1,19.2-38.3,38.4-57.5,57.5c-0.5,0.5-1,0.8-1.6,1.1c-0.7,0.2-1.4,0.1-2.1-0.3   c-23.6-5.6-47-11.9-69.4-21.4c-22.5-9.5-42.2-22.9-55.4-43.9c-21.3-33.9-20.2-91.4,22.4-125.6c19.8-15.9,42.7-24.9,67.3-29.7   c40.2-7.9,80.4-8.4,120.1,2.5c26.6,7.3,50.2,20.2,68.4,41.6c3.8,4.4,7,9.3,10,14.3c0,0.3,0,0.6,0,0.9c0.3,2.4-1.5,3.6-2.9,4.9   c-16.7,16.7-33.4,33.4-50.1,50.1C628.1,459.1,627,460.7,624.9,460.7z" fill="#0193F3"/><path d="M519,564.2c0.6,0,1.2-0.1,1.7-0.1c7.3-0.3,14.1,2,21.1,3.7c18.8,4.5,37.8,8.4,55,17.7   c10.2,5.5,18.6,12.7,23.7,23.5c7.3,15.4,3.8,36.5-7.9,49c-16.5,17.6-37.5,24.3-60.8,26.6c-13.3,1.3-26.3,0.7-39.2-1.8   c-24.5-4.7-42.2-18.9-53.7-40.9c-1.9-3.7-4.1-7.3-5.3-11.3c-0.1-0.6,0.1-1.1,0.6-1.4c1.9,0,2.9-1.5,4-2.7   c19.4-19.3,38.7-38.7,58.1-58.1C517.4,567.1,518.9,566.1,519,564.2z" fill="#DCDCDC"/><path d="M454.2,629c0,0.3-0.1,0.7-0.1,1c-0.4,1.9-2,3.1-3.2,4.3c-16.6,16.6-33.2,33.2-49.8,49.8   c-1.3,1.3-2.4,2.9-4.4,3.1c-0.2,0-0.5-0.1-0.7-0.1c-9.5-13.1-17.8-26.8-21.4-42.8c-1.7-7.7-2.8-15.5-1.1-23.2   c3.3-15.1,13.3-24.3,28.1-27.8c16.1-3.8,29.9,0.3,40.5,13.6C447.4,613.5,450.5,621.3,454.2,629z" fill="#0193F3"/><path d="M396.6,687.2c18.9-19.3,38-38.5,57.5-57.2c3.3,5.9,6.5,11.9,10,17.7c10.2,17.2,25.3,28.1,44.6,32.6   c25.3,5.8,50.5,4.9,75-4.3c10.6-4,19.9-10,27.5-18.4c18.1-19.9,15.3-49-6.2-65.3c-11.8-8.9-25.5-13.3-39.5-17.2   c-14.1-3.9-28.3-7.1-42.6-10.1c-0.8-0.2-1.5-0.6-2.3-0.9c15.6-15.7,31.2-31.4,46.8-47c4.9-5,9.8-9.9,14.7-14.9   c33,8.1,65.6,17.4,92.8,39.1c21.6,17.2,32.3,40.3,34.1,67.8c2.1,31.3-5.8,59.3-26.4,83.3c-17.3,20.2-39.7,32.5-64.6,40.7   c-31.8,10.4-64.5,12.4-97.6,10.4c-25.1-1.6-49.4-6.1-72.5-16.3c-19.3-8.6-35.9-20.8-49.5-37C397.8,689.2,397.3,688.1,396.6,687.2z" fill="#024D7D"/><path d="M580.8,501.2c-25.2-5.8-50.6-10.9-75.4-18.5c-10.5-3.2-20.5-7.8-29.3-14.7c-18.1-14.2-18.9-36.5-1.9-52   c10.8-9.9,23.8-15.1,38-17.4c17.2-2.7,34.4-2.4,51.6,1c18.5,3.7,30.8,15.6,40.9,30.5c6.8,10,11.9,21.1,19.5,30.7   c-4.3,5.8-9.8,10.4-14.8,15.5c-7.7,7.8-15.3,15.7-23.7,22.8C584.2,500.2,582.7,501.1,580.8,501.2z" fill="#FEFEFE"/><path d="M624.9,460.7c17.6-17.6,35.1-35.2,52.7-52.9c1.6-1.6,3.2-3.4,4.8-5.1c7.1,12.7,11.4,26.2,7.6,40.5   c-6.7,25.6-32.6,35.3-55.3,25.7C630.6,467.3,627.3,464.4,624.9,460.7z" fill="#034D7E"/></g></svg>